<svg width="238" height="91" viewBox="0 0 238 91" fill="none" xmlns="http://www.w3.org/2000/svg">
<g clip-path="url(#clip0_1366_482)">
<path fill-rule="evenodd" clip-rule="evenodd" d="M121.3 65.2299C124.294 65.2519 127.263 64.676 130.033 63.5355C132.804 62.395 135.322 60.7128 137.44 58.5864C139.559 56.46 141.236 53.932 142.374 51.1489C143.512 48.3659 144.089 45.3834 144.07 42.3747C144.07 29.5874 134.044 19.6999 121.3 19.6999C108.661 19.6999 98.6231 29.5912 98.6231 42.3747C98.6032 45.3759 99.1758 48.3513 100.308 51.1288C101.439 53.9063 103.108 56.4308 105.217 58.5562C107.325 60.6816 109.833 62.3657 112.593 63.5113C115.354 64.6568 118.313 65.241 121.3 65.2299ZM121.3 48.9375C120.008 48.9353 118.745 48.5482 117.672 47.8251C116.599 47.102 115.763 46.0755 115.27 44.8751C114.778 43.6748 114.65 42.3547 114.904 41.0815C115.157 39.8084 115.781 38.6394 116.696 37.7223C117.61 36.8052 118.775 36.1812 120.043 35.9292C121.31 35.6771 122.624 35.8084 123.817 36.3063C125.01 36.8042 126.03 37.6465 126.747 38.7266C127.464 39.8067 127.847 41.0762 127.846 42.3747C127.863 43.2429 127.706 44.1057 127.382 44.9111C127.059 45.7165 126.577 46.4478 125.965 47.061C125.353 47.6741 124.624 48.1565 123.822 48.479C123.019 48.8015 122.16 48.9575 121.296 48.9375H121.3ZM44.6575 20.4032H23.5451C10.3784 20.4032 0 29.0534 0 42.3747C0 55.4214 10.4795 64.5267 23.3804 64.5267H45.6156C44.7473 63.1238 44.6575 60.9387 44.6575 58.0541V20.4032ZM154.355 64.5267H166.302C165.433 63.1238 165.347 60.9387 165.347 58.0541V0H147.895V57.6103C147.895 62.6913 150.335 64.5267 154.355 64.5267ZM189.581 64.5267C188.705 63.1389 188.63 60.9387 188.63 58.0541V0H171.19V57.6103C171.19 62.6913 173.63 64.5267 177.642 64.5267H189.581ZM51.1847 84.8358H61.8251C65.841 84.8358 68.285 83.0005 68.285 77.9232V64.3536C69.9043 64.7873 71.576 64.9911 73.2515 64.9592C85.8194 64.9592 96.0182 54.8986 96.0182 42.3747C96.0182 29.0684 85.6397 20.4032 72.4693 20.4032H50.2229C51.1061 21.7985 51.1847 23.5473 51.1847 26.8758V84.8358ZM215.114 65.2262C218.107 65.2467 221.075 64.6696 223.844 63.5285C226.614 62.3874 229.131 60.705 231.248 58.5788C233.366 56.4527 235.042 53.9251 236.18 51.1428C237.318 48.3606 237.894 45.3789 237.877 42.3709C237.877 29.5837 227.842 19.6961 215.114 19.6961C202.456 19.6961 192.426 29.5874 192.426 42.3709C192.405 45.3748 192.977 48.3531 194.11 51.1329C195.243 53.9128 196.914 56.4391 199.026 58.5654C201.138 60.6916 203.648 62.3756 206.412 63.5196C209.177 64.6636 212.139 65.245 215.129 65.2299L215.114 65.2262ZM22.6693 48.9375C21.3771 48.9353 20.1145 48.5481 19.0411 47.8248C17.9678 47.1016 17.132 46.0748 16.6394 44.8743C16.1467 43.6737 16.0193 42.3534 16.2734 41.0801C16.5274 39.8069 17.1514 38.6379 18.0665 37.721C18.9816 36.804 20.1466 36.1803 21.4144 35.9287C22.6822 35.6771 23.9958 35.8089 25.1891 36.3074C26.3823 36.8059 27.4017 37.6487 28.1184 38.7293C28.835 39.8099 29.2167 41.0798 29.2153 42.3784C29.2321 43.246 29.0742 44.1081 28.751 44.9128C28.4278 45.7175 27.9459 46.4481 27.3344 47.0609C26.7229 47.6736 25.9944 48.1557 25.1927 48.4782C24.391 48.8007 23.5327 48.9569 22.6693 48.9375ZM73.2478 48.9375C71.9555 48.936 70.6926 48.5495 69.6189 47.8269C68.5452 47.1043 67.7088 46.078 67.2155 44.8778C66.7221 43.6775 66.594 42.3572 66.8473 41.0838C67.1006 39.8104 67.7239 38.6411 68.6385 37.7236C69.5531 36.8062 70.7178 36.1818 71.9854 35.9294C73.2531 35.6771 74.5667 35.8081 75.7603 36.3059C76.9538 36.8037 77.9737 37.646 78.691 38.7262C79.4082 39.8064 79.7907 41.0761 79.7899 42.3747C79.8068 43.2421 79.649 44.104 79.326 44.9087C79.0031 45.7133 78.5216 46.444 77.9106 47.057C77.2995 47.67 76.5715 48.1525 75.7702 48.4757C74.969 48.7988 74.111 48.9559 73.2478 48.9375ZM215.129 48.9375C213.836 48.9383 212.572 48.5537 211.497 47.8324C210.421 47.1111 209.583 46.0856 209.088 44.8856C208.593 43.6855 208.463 42.3649 208.715 41.0907C208.968 39.8166 209.59 38.6462 210.504 37.7276C211.418 36.809 212.583 36.1835 213.851 35.9303C215.119 35.677 216.433 35.8074 217.627 36.3048C218.821 36.8023 219.842 37.6446 220.56 38.725C221.278 39.8055 221.66 41.0756 221.66 42.3747C221.676 43.2411 221.519 44.1021 221.197 44.906C220.874 45.7098 220.394 46.4401 219.784 47.0529C219.174 47.6657 218.448 48.1485 217.648 48.4723C216.848 48.7962 215.991 48.9544 215.129 48.9375Z" fill="#3F017D"/>
<path d="M189.817 71.2926H173.057C173.057 71.2926 172.922 71.6048 171.871 74.4368C171.672 74.9633 171.088 76.2345 172.69 76.2345H185.737C185.737 76.2345 184.742 78.9198 184.656 79.0928C184.57 79.2658 184.012 80.5558 181.912 80.5558H171.541C171.541 80.5558 169.599 80.4468 168.974 82.1053L165.605 91H170.16C170.909 91 171.399 91.0376 172.099 89.2474C172.428 88.4012 172.926 87.1112 173.181 86.4192C173.491 85.5654 173.802 85.3699 174.895 85.3699H177.694L180.812 89.5069C181.18 89.9599 181.64 90.3285 182.162 90.588C182.684 90.8475 183.254 90.9918 183.836 91.0113H188.144L183.877 85.3699C185.181 85.0914 186.411 84.5376 187.485 83.7451C189.424 82.2746 189.356 82.2407 190.607 78.9273C191.857 75.6139 192.373 74.2901 192.373 74.2901C192.373 74.2901 193.436 71.2813 189.836 71.2813" fill="#996EB3"/>
<path d="M171.789 71.2926H166.748C166.497 71.2926 165.659 71.2926 165.457 71.3265C164.604 71.3766 163.789 71.6965 163.129 72.2404L157.567 77.0544L155.49 73.0339C155.116 72.4171 154.637 71.3039 153.304 71.3039H149.049L153.914 80.7326L150.037 91.0113H154.734C155.516 91.0113 155.984 90.8082 156.927 88.3222C158.024 85.4338 159.307 82.0339 159.307 82.0339L171.108 71.8567L171.789 71.3039" fill="#996EB3"/>
<path d="M147.693 71.2926H129.433C129.433 71.2926 128.142 74.5797 127.786 75.7004C127.715 75.9299 127.685 76.1217 128.179 76.1969C128.346 76.2237 128.515 76.2363 128.684 76.2345H132.947C133.086 76.2345 133.696 76.4489 133.344 77.3628C132.97 78.3707 128.216 90.9473 128.19 91.0113H132.797C133.512 91.0113 133.988 91.0113 134.669 89.2587C135.073 88.247 135.507 87.1262 135.758 86.4342L138.752 78.5136L139.19 77.4305C139.564 76.4602 140.167 76.2834 140.627 76.2495H144.841C145.027 76.2804 145.218 76.2619 145.394 76.1959C145.571 76.13 145.727 76.0188 145.848 75.8734C146.743 74.8881 147.401 73.2408 147.772 72.1576C147.892 71.7815 147.97 71.3001 147.712 71.3001" fill="#996EB3"/>
<path d="M216.196 72.7143V72.6954C216.427 72.2072 216.696 71.7381 217.001 71.2926H204.826L202.374 71.3528C202.243 71.3528 202.109 71.3528 201.974 71.3528C199.006 71.4318 195.727 74.4217 194.114 78.8258C192.778 82.4551 192.913 86.0882 194.238 88.3748C194.679 89.2918 195.411 90.0353 196.319 90.4885L196.409 90.5299L196.596 90.6051C197.185 90.8349 197.809 90.9621 198.441 90.9812H206.596C207.131 90.9812 208.127 90.9812 208.587 90.5224C209.145 89.9733 209.388 89.0819 210.084 87.5136C210.312 87.0307 210.58 86.5677 210.885 86.1296H197.112L197.614 84.8019C198.018 83.7263 198.227 83.6511 198.662 83.4969C199.35 83.3877 200.046 83.3399 200.743 83.354H207.345C207.525 83.3493 207.705 83.3317 207.884 83.3013C208.246 83.278 208.594 83.1472 208.883 82.9252C209.44 82.4175 209.684 81.5863 210.38 80.1308C210.608 79.6799 210.876 79.2506 211.181 78.8484H199.859C199.882 78.792 199.904 78.728 199.93 78.6566C200.05 78.3482 200.278 77.7539 200.331 77.596C200.705 76.6181 200.922 76.5467 201.341 76.3962C201.923 76.2897 202.513 76.2418 203.104 76.2533H212.603C213.101 76.2533 214.205 76.2872 214.703 75.7869C215.257 75.2303 215.5 74.3239 216.2 72.7331" fill="#996EB3"/>
<path d="M237.941 71.2926H225.373C224.017 71.3062 222.682 71.6408 221.479 72.2694C220.275 72.898 219.236 73.8029 218.445 74.9106C218.191 75.2543 217.965 75.6177 217.768 75.9976C217.712 76.1066 217.659 76.2157 217.607 76.3248V76.3511C217.607 76.3812 217.581 76.415 217.566 76.4451C217.521 76.5467 217.476 76.6444 217.435 76.746L217.412 76.8024C217.364 76.9228 217.315 77.0469 217.278 77.1785C217.271 77.1964 217.264 77.214 217.255 77.2311L217.154 77.5584V77.6072C217.079 77.863 217.019 78.1112 216.971 78.3594C216.971 78.3594 216.971 78.3594 216.971 78.3895C216.923 78.6381 216.889 78.8892 216.87 79.1417C216.844 79.3666 216.844 79.5938 216.87 79.8187C216.87 79.9089 216.87 79.9917 216.892 80.0744C216.894 80.0869 216.894 80.0996 216.892 80.112C216.892 80.1835 216.911 80.255 216.922 80.3227C216.92 80.3414 216.92 80.3603 216.922 80.3791L216.956 80.5634C216.956 80.5859 216.956 80.6085 216.956 80.6311C216.956 80.6536 216.982 80.7439 216.997 80.8003C216.999 80.8228 216.999 80.8455 216.997 80.868C216.997 80.9206 217.027 80.9771 217.042 81.0222L217.072 81.1012C217.072 81.1501 217.105 81.1952 217.12 81.2441C217.135 81.293 217.12 81.2967 217.15 81.3193L217.207 81.4547C217.219 81.4778 217.231 81.5016 217.24 81.5262L217.3 81.654C217.318 81.6774 217.333 81.7026 217.345 81.7292C217.365 81.7685 217.387 81.8062 217.412 81.8421C217.426 81.8685 217.443 81.8937 217.461 81.9173C217.481 81.9538 217.504 81.9889 217.528 82.0226L217.581 82.0941L217.656 82.1956L217.716 82.2633C217.738 82.2934 217.768 82.3235 217.794 82.3536L217.858 82.4213L217.948 82.504L218.011 82.5604C218.041 82.5899 218.074 82.6163 218.109 82.6394C218.128 82.6601 218.151 82.6779 218.176 82.692C218.212 82.7205 218.249 82.7469 218.288 82.771L218.344 82.8124L218.528 82.914C218.799 83.0583 219.088 83.1634 219.389 83.2261C219.844 83.2928 220.302 83.3355 220.762 83.354H226.432C227.48 83.354 227.929 83.6812 227.929 84.2115C227.929 84.9374 227.506 85.949 226.851 86.092C226.667 86.1207 226.48 86.132 226.294 86.1258H217.236C216.671 86.1258 215.365 86.1559 214.852 87.491C214.56 88.2432 214.074 89.5595 213.531 90.9925H226.256C227.611 90.9734 228.943 90.6346 230.143 90.0035C231.344 89.3725 232.381 88.4668 233.169 87.3594C233.424 87.015 233.651 86.6502 233.846 86.2687C233.903 86.1596 233.959 86.0506 234.007 85.9415V85.9152C234.007 85.8813 234.034 85.8512 234.049 85.8212L234.18 85.5203L234.202 85.4601C234.251 85.3398 234.296 85.2156 234.337 85.084L234.359 85.0276C234.393 84.9223 234.43 84.8095 234.46 84.7004C234.461 84.6841 234.461 84.6678 234.46 84.6515C234.535 84.3958 234.595 84.1438 234.644 83.8993C234.642 83.8906 234.642 83.8817 234.644 83.873C234.689 83.6172 234.722 83.3653 234.741 83.1208C234.767 82.8934 234.767 82.6637 234.741 82.4363C234.741 82.3498 234.741 82.2671 234.718 82.1843C234.721 82.1719 234.721 82.1592 234.718 82.1467C234.718 82.0752 234.718 82.0038 234.689 81.9323C234.659 81.8609 234.689 81.8947 234.689 81.8797L234.655 81.6916C234.654 81.6704 234.654 81.649 234.655 81.6277C234.655 81.5713 234.629 81.5149 234.614 81.4585L234.591 81.387C234.58 81.3334 234.565 81.2806 234.546 81.229L234.524 81.1576L234.471 81.0109C234.471 80.9883 234.471 80.962 234.442 80.9319L234.385 80.8003C234.37 80.7771 234.359 80.7517 234.352 80.7251L234.288 80.601C234.276 80.5739 234.262 80.5475 234.247 80.522L234.18 80.4091C234.167 80.3817 234.151 80.3563 234.131 80.3339C234.111 80.2975 234.088 80.2623 234.064 80.2286L234.011 80.1572L233.936 80.0556C233.914 80.0331 233.899 80.0105 233.88 79.9879L233.798 79.8977L233.734 79.83L233.644 79.7472C233.626 79.7255 233.604 79.7065 233.581 79.6908C233.55 79.6612 233.518 79.6336 233.483 79.6081L233.42 79.5554L233.304 79.4802C233.285 79.4643 233.265 79.4504 233.244 79.4388L233.064 79.3335C232.796 79.1696 232.506 79.0431 232.203 78.9574C231.754 78.8593 231.294 78.8176 230.834 78.8333H223.195C223.326 78.4911 223.629 77.705 223.629 77.6862C224.037 76.6068 224.247 76.5316 224.681 76.3812C225.348 76.267 226.025 76.2179 226.702 76.2345H233.599C234.101 76.2345 235.205 76.2684 235.699 75.7681C236.257 75.2115 236.496 74.3051 237.196 72.7143C237.196 72.7143 237.196 72.7142 237.196 72.6954C237.426 72.2064 237.695 71.7372 238.001 71.2926H237.941Z" fill="#996EB3"/>
</g>
<defs>
<clipPath id="clip0_1366_482">
<rect width="238" height="91" fill="white"/>
</clipPath>
</defs>
</svg>
