<svg width="221" height="86" viewBox="0 0 221 86" fill="none" xmlns="http://www.w3.org/2000/svg">
<path fill-rule="evenodd" clip-rule="evenodd" d="M10.6115 21.9836C27.5828 15.7164 46.5459 11.6691 66.1187 14.5207L68.2553 11.0602C72.2824 10.4253 76.4051 9.88645 80.43 9.47437L74.9962 17.6946C80.2746 19.9742 84.727 25.4714 85.1549 31.2842C85.1822 39.1042 81.6306 45.6566 77.5238 51.749L83.1957 51.0248C87.1929 44.6524 98.1977 36.3692 103.026 42.7073L104.674 40.4553L112.056 39.4665L102.692 55.3121C102.626 55.5665 102.714 55.9786 103.149 55.9302C105.376 54.9444 107.346 53.3458 109.107 51.7292C113.599 47.6074 117.482 43.0564 120.398 38.1664L127.457 37.3982L123.503 44.3217C126.813 41.7334 130.134 37.9005 134.107 36.2429C135.164 35.7731 136.469 36.1359 137.423 36.5911C138.342 37.3651 138.653 38.3575 138.611 39.5378C137.167 43.9942 134.039 47.7329 131.768 51.8626C131.673 52.2007 131.571 52.5305 132.017 52.6626C137.627 49.8066 143.153 44.3895 147.187 39.253L140.713 40.0349L143.082 35.5869L149.151 35.0022C156.66 23.1939 164.05 10.1722 176.255 1.56502C177.825 0.844303 179.976 -0.573351 181.589 1.03714C183.004 3.53872 181.384 6.3661 180.406 8.65504C175.28 18.1229 165.223 25.7906 156.801 32.4839L156.117 34.1054L170.462 32.5072C170.749 32.6371 170.648 33.1791 170.55 33.4014C165.857 37.3185 160.838 41.8065 160.211 47.802C160.011 48.8217 160.739 49.4341 161.502 49.8563C164.91 50.684 167.186 47.2843 169.396 45.0411C170.655 43.424 172.402 41.6441 172.986 39.7025C171.785 39.1658 171.041 37.6029 171.106 36.526C171.321 33.8148 172.547 31.4401 174.795 29.7996C175.562 29.3039 176.685 29.1141 177.607 29.5051C178.273 29.9577 179.066 30.6348 179.154 31.4651C179.484 33.8302 178.497 35.8519 177.63 37.8353C182.36 37.0785 186.314 33.858 190.077 30.5076L190.563 29.7772C190.719 26.5553 191.321 23.4321 193.893 21.3162C195.177 20.4334 196.848 19.2033 198.433 20.3027C199.594 20.8556 199.228 23.374 199.228 23.374C198.587 26.5518 192.688 28.7152 193.788 33.2852C193.935 33.8928 193.489 34.6866 194.093 34.9789C198.891 33.744 203.539 31.4867 207.963 29.2911C208.421 27.9549 207.987 26.4822 208.414 25.1456C209.074 22.6942 210.629 20.0579 213.16 18.9625C213.96 18.7463 214.854 18.6904 215.585 19.0796C216.503 19.8857 216.908 21.0701 216.451 22.2473C215.978 25.3072 213.372 27.5824 211.215 29.7983C210.627 34.9956 212.624 40.248 210.604 44.9223C208.525 49.1492 204.069 51.2806 199.599 51.465C197.813 51.322 195.807 50.6977 195.186 48.7777C194.132 45.1935 196.713 42.1195 199.476 39.9733C201.888 37.9837 204.611 36.7945 207.366 35.6054C208.395 34.7205 208.323 32.9405 208.141 31.7584C205.673 32.9576 202.75 34.2886 200.059 35.3817L194.029 37.7389C193.953 42.8134 192.607 48.0525 188.114 50.7905C185.262 52.1056 181.067 53.6655 178.151 51.3739C176.82 50.2446 176.709 48.3286 177.073 46.8317C178.69 40.8137 185.25 38.892 189.931 36.507C190.641 35.5873 190.397 34.3084 190.214 33.3495C186.13 36.8249 181.068 39.8927 175.797 40.3576C171.98 46.1968 165.993 54.6508 158.051 54.1027C156.646 54.1225 155.535 53.4431 154.521 52.604C152.309 50.0628 153.524 46.2109 154.823 43.6376C156.155 40.9361 158.727 38.8202 160.726 36.5709C158.458 36.7105 154.099 37.3669 154.099 37.3669L142.399 59.1367L145.72 58.942L164.505 57.063L187.276 55.5705L212.787 54.5804C214.767 54.4377 216.872 54.5522 218.915 54.5372L214.348 58.5515C216.41 60.0057 218.567 61.5885 220.79 62.8208L220.725 62.9806L202.346 62.3413L179.426 62.5557L149.636 63.8281C146.249 64.1816 142.768 64.3102 139.352 64.5365L132.865 76.3215L124.912 76.8907L131.587 65.4584L131.757 65.1647L116.931 66.0646L89.7777 68.7322L67.6654 71.6036C68.3434 70.7477 68.453 69.0888 69.953 69.1333L99.0422 64.1843L116.777 61.8496L134.699 60.059L140.435 50.1513C140.151 49.8607 139.873 50.1777 139.635 50.3679C135.841 53.5898 131.952 56.6201 127.19 57.4086C126.265 57.3364 125.47 56.9785 124.772 56.3978C122.666 52.7409 126.939 48.5888 128.103 46.4447C128.103 46.4447 129.39 44.4613 130.224 42.5849C130.224 42.5849 130.338 42.4392 130.194 42.2661C130.049 42.0927 129.824 42.2067 129.824 42.2067C124.198 46.818 118.615 52.5142 114.732 58.4177C112.589 58.5383 110.485 58.7312 108.407 59.0002C109.159 57.0282 110.247 54.8868 111.365 52.9619C107.862 55.6123 104.485 58.6154 100.546 60.1448C99.4565 60.582 97.1882 60.818 95.7772 57.933C91.9231 60.708 87.5191 64.2129 82.5569 62.2546C81.2572 61.2856 80.8227 59.8133 80.7082 58.2803C80.6651 56.8438 81.012 55.4824 81.5333 54.2739L81.5852 54.2788L75.4457 54.8753C62.0736 69.3768 45.9137 80.4151 27.7805 84.5337C22.7285 85.5433 16.7853 86.2891 11.5946 84.9674C9.84281 84.4734 8.03773 82.9255 7.67055 81.0389C7.55168 76.41 11.8592 72.8403 15.4562 70.3502C23.6416 65.0278 32.5772 61.5942 41.7624 58.7699L43.2518 56.3251L61.2692 23.4792L61.3727 23.4796C39.37 21.0855 19.806 29.1498 2.19585 39.146L0.65625 39.9305L10.6115 21.9836ZM20.4043 77.5115C20.6183 78.6302 21.8277 79.056 22.7509 79.3197C30.9407 80.8672 43.4966 75.8619 52.3539 70.3528C57.9725 66.5406 64.0891 61.5581 68.3821 56.0425C60.6476 57.2514 52.898 59.219 45.7261 61.7729L39.8085 70.5628C38.7087 72.2451 37.2193 74.5935 34.9242 74.3187C34.1916 74.1211 33.9182 73.4716 34.2044 72.6845L38.9073 64.076C33.9777 65.7239 29.2351 67.8213 24.9307 71.007C22.7923 72.6963 20.2062 74.6049 20.4043 77.5115ZM49.3152 56.4739C56.2894 54.62 63.2579 53.4678 70.6376 52.7022L72.2208 50.5136C75.3044 44.5714 79.1365 37.1366 75.6857 30.2434C74.5577 27.744 71.9188 26.5725 69.7558 25.7237L49.3152 56.4739ZM89.9212 52.0413C89.1076 53.8847 87.5874 56.138 88.9742 58.1927C89.6099 58.5493 90.3782 58.2689 90.9858 58.1469C94.7993 56.3291 97.8667 52.3654 99.7488 48.8072C100.335 47.504 101.342 45.5338 100.012 44.2134C98.5495 43.594 97.0742 44.4433 95.8855 45.2943C93.3487 47.0276 91.4106 49.6595 89.9212 52.0413ZM160.237 26.5135C164.994 22.7567 170.423 18.0454 173.57 12.8737C174.514 11.3226 175.623 8.51811 175.596 7.69966C175.568 6.88032 175.553 6.93184 175.361 6.60868C175.143 6.43962 174.983 6.37843 174.344 6.59768C173.614 6.84863 172.031 8.26672 170.921 9.27537C166.342 14.5977 163.036 20.4418 160.237 26.5135ZM181.451 46.137C181.51 46.7119 182.146 47.0043 182.721 46.8819C185.825 46.0154 187.981 43.1462 188.677 40.215C188.677 40.215 188.794 39.9926 188.612 39.7575C188.43 39.522 188.011 39.6351 188.011 39.6351C185.256 40.7596 182.15 42.8557 181.451 46.137ZM200.989 41.998C200.117 43.1718 198.383 44.3055 199.168 45.8768C200.248 46.5565 201.53 45.8019 202.493 45.2674C204.709 43.6587 206.517 41.3442 206.667 38.7282L206.444 38.7269C204.521 39.5713 202.662 40.5764 200.989 41.998Z" fill="#FD1813"/>
</svg>
