<svg width="243" height="48" viewBox="0 0 243 48" fill="none" xmlns="http://www.w3.org/2000/svg">
<path d="M13.8274 23.5201L27.5354 46.6683H41.7011V0.953217H27.8446V24.6824L13.788 0.953217H0V46.6683H13.8274V23.5201Z" fill="#FF0000"/>
<path d="M78.6443 21.3408H83.1992V37.0612C83.1992 38.87 83.4387 40.4029 83.9807 42.128C84.5985 44.0641 85.9272 45.4551 87.8305 46.156C88.6479 46.4465 89.3597 46.6393 90.2171 46.8102C94.096 47.533 97.5322 47.3917 101.343 46.3488L101.353 37.083C100.118 37.4935 98.9736 37.5657 97.6876 37.3184C96.5039 37.0903 95.672 36.0838 95.672 34.8778V21.3403H101.353V14.0979H95.672V3.69888H83.1956V14.0979H78.6406V21.3403" fill="#FF0000"/>
<path d="M229.816 0.953217H242.344V46.6683H229.816V0.953217Z" fill="#FF0000"/>
<path d="M103.979 14.0148H116.194V46.6683H103.979V14.0148Z" fill="#FF0000"/>
<path d="M168.285 17.4691C169.893 16.0558 171.423 15.0716 173.359 14.1852C176.515 12.7214 179.668 12.4892 183.006 13.4588C186.587 14.5084 189.166 17.0223 190.295 20.5744C190.837 22.2854 191.069 23.8038 191.069 25.598V46.6683H178.102V27.719C178.102 27.0867 178.02 26.5494 177.833 25.9394C177.498 24.8534 176.783 24.0506 175.73 23.6037C173.431 22.6341 170.819 23.4987 169.556 25.6562C169.028 26.5499 168.792 27.4359 168.792 28.4782V46.6683H156.229V14.0147H168.008L168.285 17.4691Z" fill="#FF0000"/>
<path d="M103.979 0.953217H116.194V9.57986H103.979V0.953217Z" fill="#FF0000"/>
<path d="M78.1407 44.1077C77.9557 41.4088 77.8534 39.135 77.7988 36.433C77.7271 32.884 77.6866 29.891 77.6642 26.3426C77.6538 24.4356 77.4356 22.8155 76.9596 20.9594C76.3319 18.5333 74.9077 16.6882 72.7175 15.4676C71.3987 14.723 70.1859 14.2688 68.704 13.942C63.9963 12.936 59.8378 12.856 55.0901 13.6806C53.7573 13.9056 52.6495 14.2325 51.4071 14.7521C48.5087 15.9508 46.518 18.1265 45.5885 21.1158C45.2362 22.2563 45.1385 23.2914 45.2767 24.4829C45.297 24.7043 45.3588 24.8825 45.4544 25.0862L56.4458 25.3517C56.4146 24.6616 56.5076 24.0589 56.7472 23.4011C57.1067 22.3982 57.8113 21.6905 58.8142 21.32C60.2925 20.7827 61.709 20.7609 63.2018 21.2478C64.186 21.5673 64.8833 22.2756 65.1888 23.2675C65.3811 23.8781 65.2813 24.4881 64.9129 25.0145C64.5866 25.4831 64.187 25.796 63.656 25.9986C63.3296 26.1223 63.0496 26.2132 62.7149 26.2963C61.1857 26.7105 59.8784 26.9937 58.32 27.255C57.0849 27.4618 56.0462 27.6474 54.8184 27.8942C53.1587 28.2288 51.7713 28.5956 50.1548 29.1147C48.6802 29.5902 47.5178 30.2698 46.3772 31.3195C44.8953 32.6746 44.0488 34.287 43.7657 36.2776C43.5734 37.614 43.6207 38.7692 43.9148 40.0807C44.6812 43.4873 47.0496 46.0048 50.4022 46.9708C54.1252 48.0568 57.6118 47.8931 61.2044 46.4366C62.9477 45.7278 64.281 44.7619 65.4829 43.309L64.7097 37.6972C64.1579 38.5478 63.471 39.1355 62.5377 39.5496C61.6658 39.9232 60.8781 40.1378 59.9298 40.2293C59.1379 40.3114 58.4551 40.2501 57.6887 40.0406C57.0636 39.8697 56.5809 39.5725 56.1413 39.1038C55.7635 38.7042 55.5422 38.2719 55.4289 37.7346C55.2548 36.91 55.5318 36.1217 56.1704 35.5699C56.5986 35.2062 57.02 34.9594 57.5505 34.7666C58.8256 34.2984 59.9153 33.9461 61.2226 33.5751C62.8028 33.1282 64.1065 32.6455 65.5993 31.9591C65.7448 33.1573 65.7417 34.1784 65.5791 35.3626C65.4554 36.2376 65.1909 36.9531 64.7139 37.6977L65.4871 43.3095C65.7303 44.1129 65.9443 44.7769 66.2244 45.5506C66.3766 45.983 66.5767 46.3238 66.8822 46.6657H78.9887C78.4727 45.8697 78.2114 45.0607 78.1454 44.1051" fill="#FF0000"/>
<path d="M140.17 23.6619C140.831 24.6752 141.223 25.6411 141.456 26.818C141.898 29.0955 141.943 31.0971 141.598 33.3891C141.424 34.5369 141.148 35.4811 140.671 36.538L147.692 44.1841C150.729 41.8593 152.65 39.0045 153.674 35.3252C154.343 32.9204 154.535 30.7775 154.314 28.3C153.943 24.2574 152.342 20.923 149.414 18.1047C146.675 15.4822 143.639 13.9638 139.89 13.3829C138.597 13.1901 137.49 13.0992 136.189 13.0992C134.882 13.0992 133.774 13.1901 132.484 13.3829C128.732 13.9638 125.696 15.4822 122.957 18.1047C120.033 20.923 118.427 24.2574 118.057 28.3C117.836 30.7775 118.037 32.9204 118.7 35.3252C119.72 39.0045 121.645 41.8593 124.682 44.1841C126.683 45.7169 128.674 46.632 131.133 47.1843C132.884 47.5693 134.398 47.7185 136.189 47.7185C137.976 47.7185 139.487 47.5693 141.237 47.1843C143.7 46.6325 145.687 45.7169 147.692 44.1841L140.671 36.538C139.556 39.0118 136.643 40.1197 134.169 39.0046C133.025 38.4886 132.215 37.6785 131.699 36.538C131.223 35.4811 130.948 34.5369 130.772 33.3891C130.428 31.0971 130.471 29.0955 130.915 26.818C131.148 25.6411 131.54 24.6752 132.2 23.6619C133.643 21.4608 136.595 20.8503 138.797 22.2927C139.374 22.6663 139.792 23.0883 140.17 23.6619Z" fill="#FF0000"/>
<path d="M227.225 44.1077C227.036 41.4088 226.937 39.135 226.883 36.433C226.811 32.884 226.77 29.891 226.745 26.3426C226.735 24.4356 226.516 22.8155 226.04 20.9594C225.413 18.5333 223.992 16.6882 221.798 15.4676C220.479 14.723 219.263 14.2688 217.784 13.942C213.077 12.936 208.918 12.856 204.175 13.6806C202.842 13.9056 201.73 14.2325 200.484 14.7521C197.593 15.9508 195.599 18.1265 194.673 21.1158C194.316 22.2563 194.219 23.2914 194.356 24.4829C194.377 24.7043 194.439 24.8825 194.535 25.0862L205.526 25.3517C205.495 24.6616 205.587 24.0589 205.823 23.4011C206.183 22.3982 206.891 21.6905 207.894 21.32C209.372 20.7827 210.792 20.7609 212.282 21.2478C213.266 21.5673 213.963 22.2756 214.268 23.2675C214.461 23.8781 214.371 24.4881 213.992 25.0145C213.666 25.4831 213.269 25.796 212.736 25.9986C212.409 26.1223 212.129 26.2132 211.792 26.2963C210.266 26.7105 208.958 26.9937 207.4 27.255C206.165 27.4618 205.126 27.6474 203.902 27.8942C202.235 28.2288 200.847 28.5956 199.235 29.1147C197.764 29.5907 196.598 30.2698 195.457 31.3195C193.976 32.6746 193.125 34.287 192.846 36.2776C192.653 37.614 192.7 38.7692 192.998 40.0807C193.764 43.4873 196.129 46.0048 199.486 46.9708C203.204 48.0568 206.692 47.8931 210.284 46.4366C212.031 45.7278 213.364 44.7619 214.563 43.309L213.789 37.6972C213.238 38.5478 212.551 39.1355 211.617 39.5496C210.745 39.9232 209.961 40.1378 209.01 40.2293C208.218 40.3114 207.535 40.2501 206.768 40.0406C206.143 39.8697 205.661 39.5725 205.221 39.1038C204.847 38.7042 204.618 38.2719 204.513 37.7346C204.339 36.91 204.605 36.1217 205.25 35.5699C205.678 35.2062 206.099 34.9594 206.63 34.7666C207.901 34.2984 208.994 33.9461 210.302 33.5751C211.879 33.1282 213.19 32.6455 214.679 31.9591C214.828 33.1573 214.817 34.1784 214.658 35.3626C214.539 36.2376 214.27 36.9531 213.794 37.6977L214.567 43.3095C214.814 44.1129 215.028 44.7769 215.304 45.5506C215.453 45.983 215.656 46.3238 215.962 46.6657H228.068C227.552 45.8697 227.291 45.0607 227.229 44.1051" fill="#FF0000"/>
</svg>
