<svg width="245" height="53" viewBox="0 0 245 53" fill="none" xmlns="http://www.w3.org/2000/svg">
<g clip-path="url(#clip0_1366_654)">
<path d="M66.76 36.1448C67.1679 33.3342 66.9661 30.4682 66.1683 27.7434C65.3705 25.0187 63.9956 22.4998 62.1381 20.3598C60.2806 18.2198 57.9845 16.5093 55.4073 15.3458C52.8302 14.1822 50.0331 13.5933 47.2082 13.6193C42.0906 13.6102 37.1688 15.5962 33.4772 19.1597C30.7148 16.4704 27.2258 14.6586 23.4457 13.9503C19.6656 13.242 15.7617 13.6686 12.2212 15.1768C8.6807 16.685 5.6603 19.2081 3.53694 22.4313C1.41357 25.6544 0.28125 29.4349 0.28125 33.301C0.28125 37.167 1.41357 40.9475 3.53694 44.1707C5.6603 47.3938 8.6807 49.9169 12.2212 51.4252C15.7617 52.9334 19.6656 53.36 23.4457 52.6517C27.2258 51.9434 30.7148 50.1315 33.4772 47.4423C37.1661 51.0121 42.0882 53.0044 47.2082 53C55.8251 53 63.9379 47.4899 66.6307 39.8139H54.3732C53.7442 41.6463 51.3832 44.384 47.3375 44.384C46.4414 44.384 39.3841 44.384 39.3841 36.1535C39.3841 36.1448 66.7514 36.1448 66.76 36.1448ZM19.4532 44.3753C15.2826 44.3753 11.9005 39.6103 11.9005 33.7277C11.9005 27.845 15.2826 23.08 19.4532 23.08C23.6238 23.08 27.0102 27.845 27.0102 33.7277C27.0102 39.6103 23.6281 44.3753 19.4532 44.3753ZM39.8063 29.1099C39.8063 27.1775 40.5698 25.3243 41.9289 23.9578C43.2879 22.5914 45.1312 21.8238 47.0531 21.8238C48.9751 21.8238 50.8184 22.5914 52.1774 23.9578C53.5365 25.3243 54.2999 27.1775 54.2999 29.1099C54.2999 29.1099 39.7632 29.0709 39.8063 29.1186V29.1099Z" fill="#D6091C"/>
<path d="M186.337 13.6193C182.472 13.6543 178.705 14.8385 175.508 17.0226C172.312 19.2067 169.83 22.293 168.376 25.8927C166.921 29.4924 166.558 33.4445 167.334 37.251C168.109 41.0575 169.987 44.5482 172.732 47.2833C175.477 50.0184 178.965 51.8755 182.758 52.6208C186.551 53.366 190.478 52.966 194.045 51.4711C197.612 49.9762 200.66 47.4533 202.803 44.2202C204.947 40.9872 206.091 37.1887 206.091 33.3031C206.079 30.7065 205.559 28.1375 204.561 25.7429C203.562 23.3483 202.103 21.175 200.269 19.3471C198.435 17.5192 196.26 16.0726 193.869 15.0898C191.479 14.107 188.919 13.6073 186.337 13.6193ZM186.039 44.3753C181.869 44.3753 178.486 39.6103 178.486 33.7277C178.486 27.845 181.869 23.08 186.039 23.08C190.21 23.08 193.596 27.845 193.596 33.7277C193.596 39.6103 190.214 44.3753 186.039 44.3753Z" fill="#D6091C"/>
<path d="M69.9648 14.3557V51.6831H81.8648V32.5537C81.8648 27.6371 87.8966 24.1673 94.4756 25.7224V13.6193C94.4756 13.6193 84.0836 12.8222 81.8648 20.8795V14.3557H69.9648Z" fill="#D6091C"/>
<path d="M109.469 0.0996246H97.332V51.6831H109.469V0.0996246Z" fill="#D6091C"/>
<path d="M114.23 0V9.81161H126.367L126.466 0H114.23Z" fill="#D6091C"/>
<path d="M126.367 14.3557H114.23V51.6831H126.367V14.3557Z" fill="#D6091C"/>
<path d="M130.891 0V51.6831H142.907V41.473L146.832 37.2451L155.164 51.6831H168.49L155.32 28.4732L168.49 14.3557H153.734L142.907 27.6371V0H130.891Z" fill="#D6091C"/>
<path d="M220.839 14.3557H208.818V51.6831H220.839V30.2276C220.839 26.7967 223.536 23.0887 227.732 23.0887C230.671 23.0887 232.851 25.9217 232.851 29.9113V51.6831H244.988V25.7224C244.988 20.9574 240.585 13.6366 232.851 13.6366C225.117 13.6366 222.472 17.3057 220.835 20.4203L220.839 14.3557Z" fill="#D6091C"/>
</g>
<defs>
<clipPath id="clip0_1366_654">
<rect width="245" height="53" fill="white"/>
</clipPath>
</defs>
</svg>
